<svg width="14" height="12" viewBox="0 0 14 12" fill="none" xmlns="http://www.w3.org/2000/svg">
<path d="M12.5 0.5H1.5C1.23478 0.5 0.98043 0.605357 0.792893 0.792893C0.605357 0.98043 0.5 1.23478 0.5 1.5V10.5C0.5 10.7652 0.605357 11.0196 0.792893 11.2071C0.98043 11.3946 1.23478 11.5 1.5 11.5H12.5C12.7652 11.5 13.0196 11.3946 13.2071 11.2071C13.3946 11.0196 13.5 10.7652 13.5 10.5V1.5C13.5 1.23478 13.3946 0.98043 13.2071 0.792893C13.0196 0.605357 12.7652 0.5 12.5 0.5ZM12.5 1.5V2.5H1.5V1.5H12.5ZM12.5 10.5H1.5V3.5H12.5V10.5ZM10 5C10 5.79565 9.68393 6.55871 9.12132 7.12132C8.55871 7.68393 7.79565 8 7 8C6.20435 8 5.44129 7.68393 4.87868 7.12132C4.31607 6.55871 4 5.79565 4 5C4 4.86739 4.05268 4.74021 4.14645 4.64645C4.24021 4.55268 4.36739 4.5 4.5 4.5C4.63261 4.5 4.75979 4.55268 4.85355 4.64645C4.94732 4.74021 5 4.86739 5 5C5 5.53043 5.21071 6.03914 5.58579 6.41421C5.96086 6.78929 6.46957 7 7 7C7.53043 7 8.03914 6.78929 8.41421 6.41421C8.78929 6.03914 9 5.53043 9 5C9 4.86739 9.05268 4.74021 9.14645 4.64645C9.24021 4.55268 9.36739 4.5 9.5 4.5C9.63261 4.5 9.75979 4.55268 9.85355 4.64645C9.94732 4.74021 10 4.86739 10 5Z" fill="#FF7600"/>
</svg>
