<svg width="147" height="24" viewBox="0 0 147 24" fill="none" xmlns="http://www.w3.org/2000/svg">
<path fill-rule="evenodd" clip-rule="evenodd" d="M137.597 12.392C137.916 12.8154 138.602 13.1164 139.24 13.1164C140.574 13.1164 141.569 12.1756 141.579 10.6231C141.569 9.20233 140.593 8.13912 139.24 8.13912C138.545 8.13912 137.888 8.46843 137.597 8.89183V6.06915H136.808V13.0318H137.597V12.392ZM139.184 12.392C138.179 12.392 137.578 11.5828 137.578 10.6231C137.578 9.67277 138.179 8.86361 139.184 8.86361C140.179 8.86361 140.78 9.66337 140.78 10.6231C140.78 11.5922 140.179 12.392 139.184 12.392ZM142.952 23.865V16.9023H143.741V19.6592C144.032 19.2264 144.52 18.9723 145.187 18.9723C146.249 18.9723 147 19.7721 147 20.8541V23.865H146.211V20.9952C146.211 20.1672 145.676 19.6968 144.981 19.6968C144.295 19.6968 143.741 20.2049 143.741 20.9952V23.865H142.952ZM138.753 23.9493C137.438 23.9493 136.32 22.952 136.32 21.4559C136.32 19.9411 137.41 18.972 138.762 18.972C140.059 18.972 140.707 19.7812 140.913 20.3551L140.237 20.7032C140.068 20.214 139.589 19.6965 138.762 19.6965C137.795 19.6965 137.119 20.4304 137.119 21.4559C137.119 22.4439 137.786 23.2248 138.753 23.2248C139.57 23.2248 140.087 22.7073 140.256 22.2181L140.932 22.5662C140.725 23.1401 140.04 23.9493 138.753 23.9493ZM130.103 21.4654C130.103 22.8767 131.079 23.9493 132.498 23.9493C133.728 23.9493 134.367 23.1307 134.573 22.5568L133.963 22.2463C133.803 22.7356 133.268 23.2248 132.498 23.2248C131.671 23.2248 131.014 22.7732 130.91 21.7382H134.724V21.3148C134.724 20.0352 133.822 18.972 132.479 18.972C131.051 18.972 130.103 20.0352 130.103 21.4654ZM133.906 21.042H130.939C131.079 20.1669 131.69 19.6777 132.479 19.6777C133.324 19.6777 133.906 20.3269 133.906 21.042ZM126.574 23.8646V18.0311H124.442V17.2784H129.533V18.0311H127.401V23.8646H126.574ZM132.208 13.1261C131.24 13.1261 130.545 12.5051 130.545 11.6301C130.545 10.8115 131.118 10.1905 132.208 10.1152L133.692 10.0117V9.94586C133.692 9.40955 133.222 8.84501 132.396 8.84501C131.616 8.84501 131.25 9.3531 131.118 9.74827L130.498 9.42837C130.667 8.89206 131.231 8.13934 132.396 8.13934C133.701 8.13934 134.462 9.01437 134.462 9.94586V13.032H133.692V12.4486C133.419 12.8532 132.828 13.1261 132.208 13.1261ZM131.325 11.6301C131.325 12.1287 131.738 12.4298 132.255 12.4298C133.26 12.4298 133.71 11.743 133.71 11.0843V10.6986L132.264 10.7927C131.729 10.8303 131.325 11.0843 131.325 11.6301ZM125.053 6.44519V13.0314H129.045V12.2787H125.87V6.44519H125.053Z" fill="#FF5C00"/>
<path d="M51.8293 23.7349C51.5245 23.7349 51.2775 23.4879 51.2775 23.1832V0.551724C51.2775 0.247015 51.5245 0 51.8293 0H57.9161C58.2208 0 58.4678 0.247015 58.4678 0.551724V23.1832C58.4678 23.4879 58.2208 23.7349 57.9161 23.7349H51.8293Z" fill="black"/>
<path d="M106.732 23.695C106.493 23.695 106.282 23.5416 106.208 23.3147L103.42 14.7915C103.255 14.2853 102.539 14.2843 102.372 14.79L99.5576 23.3162C99.483 23.5423 99.2718 23.695 99.0337 23.695H93.7358C93.497 23.695 93.2853 23.5413 93.2113 23.3143L87.6984 6.40382C87.5822 6.04724 87.8479 5.68109 88.223 5.68109H93.3349C93.582 5.68109 93.7989 5.8453 93.8659 6.08306L96.3978 15.0608C96.5464 15.5877 97.2889 15.5998 97.4546 15.078L100.273 6.20307C100.346 5.97397 100.559 5.81834 100.799 5.81834H105.097C105.336 5.81834 105.548 5.97234 105.621 6.19975L108.466 14.9659C108.635 15.4848 109.374 15.4706 109.522 14.9457L112.027 6.08277C112.094 5.84515 112.311 5.68109 112.558 5.68109H117.445C117.82 5.68109 118.086 6.04724 117.97 6.40382L112.457 23.3143C112.383 23.5413 112.171 23.695 111.933 23.695H106.732Z" fill="black"/>
<rect x="64.25" y="8.44008" width="19.6601" height="12.502" rx="4.14355" stroke="black" stroke-width="5.50602"/>
<path fill-rule="evenodd" clip-rule="evenodd" d="M38.559 0.27594L36.0565 4.4951V8.4847C36.0565 8.52626 36.0229 8.55995 35.9813 8.55995H33.2968C32.9921 8.55995 32.7451 8.80697 32.7451 9.11168V12.6768C32.7451 12.8907 32.8669 13.0763 33.0449 13.1678H38.5768L35.9813 16.418V23.1432C35.9813 23.4479 36.2283 23.6949 36.533 23.6949H41.8373C42.142 23.6949 42.389 23.4479 42.389 23.1432V13.7802C42.389 13.4755 42.636 13.2285 42.9408 13.2285H46.9505C47.2553 13.2285 47.5023 12.9815 47.5023 12.6768V9.11168C47.5023 8.80697 47.2553 8.55995 46.9505 8.55995H42.389C42.2323 8.55995 42.1052 8.43287 42.1052 8.2761V6.23008C42.1052 5.92537 42.3522 5.67836 42.6569 5.67836H47.0558C47.3605 5.67836 47.6075 5.43134 47.6075 5.12663V0.827664C47.6075 0.522955 47.3605 0.27594 47.0558 0.27594H38.559Z" fill="black"/>
<path d="M0 9.60744L5.52581 0.27594H25.734L22.2151 6.32384L8.99341 6.32384L7.06944 9.60718L0 9.60744Z" fill="#FF5C00"/>
<path d="M8.5608 11.9799L5.05219 18.1624L8.51623 24.0002L11.9798 18.0874H15.4252L18.9454 11.9799H8.5608Z" fill="#FF5C00"/>
</svg>
