<svg width="160" height="160" viewBox="0 0 160 160" fill="none" xmlns="http://www.w3.org/2000/svg">
<path d="M80 160C124.183 160 160 124.183 160 80C160 35.8172 124.183 0 80 0C35.8172 0 0 35.8172 0 80C0 124.183 35.8172 160 80 160Z" fill="#F3F4F6"/>
<path d="M128 160H32V56.5333C36.5248 56.5283 40.8628 54.7286 44.0623 51.529C47.2619 48.3295 49.0616 43.9915 49.0667 39.4667H110.933C110.929 41.7082 111.368 43.9283 112.227 45.9987C113.086 48.0691 114.347 49.9486 115.937 51.5285C117.517 53.119 119.397 54.3804 121.467 55.2395C123.538 56.0985 125.758 56.5383 128 56.5333V160Z" fill="white"/>
<path d="M79.9999 108.8C94.1384 108.8 105.6 97.3385 105.6 83.2C105.6 69.0615 94.1384 57.6 79.9999 57.6C65.8614 57.6 54.3999 69.0615 54.3999 83.2C54.3999 97.3385 65.8614 108.8 79.9999 108.8Z" fill="#FF7600"/>
<path fill-rule="evenodd" clip-rule="evenodd" d="M88.9644 76.4031C89.8221 77.2853 89.8101 78.7036 88.9375 79.5708L78.42 90.0241C77.5581 90.8809 76.176 90.8809 75.314 90.0241L71.0623 85.7983C70.1897 84.9311 70.1777 83.5128 71.0354 82.6306C71.8931 81.7483 73.2957 81.7362 74.1683 82.6034L76.867 85.2857L85.8315 76.3759C86.7041 75.5086 88.1067 75.5208 88.9644 76.4031Z" fill="white"/>
<path d="M93.8664 115.2H66.1331C64.3658 115.2 62.9331 116.633 62.9331 118.4C62.9331 120.167 64.3658 121.6 66.1331 121.6H93.8664C95.6338 121.6 97.0664 120.167 97.0664 118.4C97.0664 116.633 95.6338 115.2 93.8664 115.2Z" fill="#FF7600" fill-opacity="0.1"/>
<path d="M103.467 128H56.5335C54.7662 128 53.3335 129.433 53.3335 131.2C53.3335 132.967 54.7662 134.4 56.5335 134.4H103.467C105.234 134.4 106.667 132.967 106.667 131.2C106.667 129.433 105.234 128 103.467 128Z" fill="#FF7600" fill-opacity="0.1"/>
</svg>
