<svg width="20" height="21" viewBox="0 0 20 21" fill="none" xmlns="http://www.w3.org/2000/svg">
<path fill-rule="evenodd" clip-rule="evenodd" d="M12.407 16.0006C12.6065 16.2 12.8222 16.3782 13.051 16.534L11.0356 18.5494C11.0356 18.5494 11.0356 18.5494 11.0356 18.5494C10.4348 19.1501 9.4607 19.1502 8.85991 18.5495C8.85989 18.5495 8.85993 18.5495 8.85991 18.5495L6.94631 16.6358C7.22698 16.4597 7.4896 16.251 7.72902 16.0117L10.0736 13.6672L12.407 16.0006ZM5.84306 15.5326C5.45647 15.7147 5.03115 15.8108 4.59113 15.8108H4L7.79924 19.6101C8.98582 20.7966 10.9096 20.7966 12.0962 19.6101L15.9064 15.7999H15.545C15.0464 15.7999 14.5666 15.6765 14.1407 15.4443C13.8964 15.311 13.6698 15.1419 13.4675 14.9397L10.4677 11.94C10.2571 11.7288 9.89 11.7294 9.67948 11.94L6.66872 14.9507C6.42497 15.1943 6.1459 15.3899 5.84306 15.5326Z" fill="#FF7600"/>
<path fill-rule="evenodd" clip-rule="evenodd" d="M7.78138 4.98848C7.54196 4.74913 7.2793 4.54031 6.99859 4.36416L8.91217 2.45058C9.51296 1.84978 10.487 1.84978 11.0878 2.45058L13.1032 4.46593C12.8744 4.6217 12.6588 4.7999 12.4593 4.9993L10.1257 7.33314L7.78138 4.98848ZM14.1929 5.55571C14.6189 5.32344 15.0986 5.20007 15.5973 5.20007H15.9586L12.1485 1.38992C10.9619 0.203337 9.03809 0.203337 7.85151 1.38992L4.05237 5.18906H4.6434C5.08344 5.18906 5.50877 5.28516 5.89536 5.46739C6.19817 5.61012 6.4772 5.8057 6.7209 6.04932L9.73166 9.06054C9.94848 9.27737 10.3026 9.27831 10.5199 9.06026L13.5197 6.06023C13.722 5.85804 13.9486 5.68896 14.1929 5.55571Z" fill="#FF7600"/>
<path fill-rule="evenodd" clip-rule="evenodd" d="M18.0495 9.41229C18.6502 10.0129 18.6503 10.987 18.0494 11.5879L16.2193 13.4179H15.5973C15.4538 13.4179 15.3059 13.3565 15.2051 13.2556L12.4493 10.5001L15.2046 7.74489C15.3054 7.64397 15.4538 7.58209 15.5973 7.58209H16.2193L18.0495 9.41229ZM16.8076 6.04908C16.7569 6.0694 16.7021 6.08209 16.6441 6.08209H15.5973C15.0561 6.08209 14.5263 6.30156 14.1439 6.68423L11.1441 9.68407C10.8634 9.96477 10.4946 10.1053 10.126 10.1053C9.7572 10.1053 9.38864 9.96477 9.10794 9.68435L6.0969 6.67331C5.71442 6.29064 5.18472 6.07118 4.64345 6.07118H3.35622C3.30138 6.07118 3.25002 6.0582 3.20157 6.03995L0.889934 8.35159C-0.296645 9.53807 -0.296645 11.4619 0.889934 12.6485L3.20148 14.9601C3.24992 14.9418 3.30138 14.9289 3.35622 14.9289H4.64345C5.18472 14.9289 5.71442 14.7094 6.0969 14.3267L9.10766 11.316C9.37975 11.0441 9.75293 10.9081 10.126 10.9081C10.4992 10.9081 10.8722 11.0441 11.1441 11.3162L14.1439 14.3157C14.5263 14.6985 15.0561 14.9179 15.5973 14.9179H16.6441C16.7022 14.9179 16.7569 14.9305 16.8077 14.9509L19.1101 12.6485C20.2967 11.4619 20.2967 9.53807 19.1101 8.35159L16.8076 6.04908ZM7.80229 10.5L5.03624 7.73397C4.93518 7.63286 4.7869 7.57118 4.64345 7.57118H3.79166L1.95059 9.41225C1.34992 10.0129 1.34974 10.9869 1.95059 11.5879L3.79157 13.4289H4.64345C4.7869 13.4289 4.93492 13.3674 5.03598 13.2663L7.80229 10.5Z" fill="#FF7600"/>
</svg>
